<svg width="24" height="24" viewBox="0 0 24 24" fill="none" xmlns="http://www.w3.org/2000/svg">
<g clip-path="url(#clip0_6801_75269)">
<path d="M12 14.4609C13.3591 14.4609 14.4609 13.3591 14.4609 12C14.4609 10.6409 13.3591 9.53906 12 9.53906C10.6409 9.53906 9.53906 10.6409 9.53906 12C9.53906 13.3591 10.6409 14.4609 12 14.4609Z" fill="black"/>
<path d="M12 0.28125C5.52792 0.28125 0.28125 5.52792 0.28125 12C0.28125 18.4721 5.52792 23.7188 12 23.7188C18.4721 23.7188 23.7188 18.4721 23.7188 12C23.7188 5.52792 18.4721 0.28125 12 0.28125ZM19.2402 14.9784C19.184 16.0926 18.8709 17.1912 18.059 17.9945C17.2392 18.8055 16.1353 19.1076 15.0105 19.1633H8.98959C7.86459 19.1076 6.76087 18.8056 5.94108 17.9945C5.12911 17.1912 4.81608 16.0926 4.75983 14.9784V9.02156C4.81608 7.90744 5.12916 6.80878 5.94108 6.00544C6.76087 5.1945 7.86473 4.89234 8.98959 4.8367H15.0104C16.1354 4.89234 17.2391 5.19436 18.0589 6.00544C18.8709 6.80878 19.1839 7.90744 19.2402 9.02156L19.2402 14.9784Z" fill="black"/>
<path d="M14.9338 6.19423C13.4672 6.15401 10.5319 6.15401 9.06539 6.19423C8.30221 6.21518 7.43704 6.40516 6.89329 6.98595C6.32826 7.58965 6.11474 8.31902 6.09309 9.13498C6.05503 10.5671 6.09309 14.8655 6.09309 14.8655C6.11789 15.6814 6.32826 16.4109 6.89329 17.0146C7.43704 17.5955 8.30221 17.7853 9.06539 17.8063C10.5319 17.8465 13.4672 17.8465 14.9338 17.8063C15.6969 17.7853 16.5621 17.5954 17.1059 17.0146C17.6709 16.4109 17.8844 15.6815 17.9061 14.8655V9.13498C17.8844 8.31902 17.6709 7.58965 17.1059 6.98595C16.5619 6.40498 15.6967 6.21518 14.9338 6.19423ZM11.9994 15.8147C11.245 15.8147 10.5075 15.591 9.88019 15.1719C9.25291 14.7527 8.764 14.157 8.47529 13.46C8.18658 12.763 8.11104 11.996 8.25823 11.2561C8.40541 10.5162 8.7687 9.83649 9.30216 9.30303C9.83562 8.76957 10.5153 8.40628 11.2552 8.2591C11.9952 8.11192 12.7621 8.18746 13.4591 8.47616C14.1561 8.76487 14.7518 9.25378 15.171 9.88106C15.5901 10.5083 15.8138 11.2458 15.8138 12.0003C15.8138 13.0119 15.412 13.9821 14.6966 14.6975C13.9813 15.4128 13.011 15.8147 11.9994 15.8147ZM15.8301 8.97316C15.6792 8.97313 15.5317 8.92835 15.4063 8.8445C15.2808 8.76065 15.1831 8.64149 15.1254 8.50209C15.0677 8.36269 15.0526 8.2093 15.082 8.06133C15.1115 7.91335 15.1842 7.77744 15.2909 7.67076C15.3976 7.56409 15.5335 7.49145 15.6815 7.46203C15.8295 7.43261 15.9828 7.44773 16.1222 7.50547C16.2616 7.56322 16.3808 7.661 16.4646 7.78645C16.5484 7.91191 16.5931 8.0594 16.5931 8.21027C16.5931 8.31047 16.5734 8.40969 16.535 8.50226C16.4967 8.59483 16.4405 8.67894 16.3696 8.74978C16.2988 8.82063 16.2146 8.87682 16.1221 8.91515C16.0295 8.95347 15.9303 8.97319 15.8301 8.97316Z" fill="black"/>
</g>
<defs>
<clipPath id="clip0_6801_75269">
<rect width="24" height="24" fill="white"/>
</clipPath>
</defs>
</svg>
