<svg width="25" height="25" viewBox="0 0 25 25" fill="none" xmlns="http://www.w3.org/2000/svg">
<path d="M19.3459 18.5C20.2598 19.868 20.6464 20.703 20.3216 21.3999C20.2817 21.4854 20.235 21.5679 20.182 21.6467C19.6075 22.5 18.1226 22.5 15.1529 22.5H9.71729C6.74757 22.5 5.26271 22.5 4.68817 21.6467C4.63511 21.5679 4.58845 21.4854 4.54861 21.3999C4.22375 20.703 4.61033 19.868 5.52421 18.5" stroke="#7D7D7D" stroke-width="1.5" stroke-linecap="round" stroke-linejoin="round"/>
<path d="M15.4351 10C15.4351 11.6569 14.092 13 12.4351 13C10.7782 13 9.43506 11.6569 9.43506 10C9.43506 8.34315 10.7782 7 12.4351 7C14.092 7 15.4351 8.34315 15.4351 10Z" stroke="#7D7D7D" stroke-width="1.5"/>
<path d="M12.4351 2.5C16.4939 2.5 19.9351 5.92803 19.9351 10.0869C19.9351 14.312 16.4379 17.277 13.2076 19.2932C12.9722 19.4287 12.706 19.5 12.4351 19.5C12.1642 19.5 11.898 19.4287 11.6626 19.2932C8.43831 17.2573 4.93506 14.3266 4.93506 10.0869C4.93506 5.92803 8.37626 2.5 12.4351 2.5Z" stroke="#7D7D7D" stroke-width="1.5"/>
</svg>
