<svg width="25" height="25" viewBox="0 0 25 25" fill="none" xmlns="http://www.w3.org/2000/svg">
<path d="M7.43506 9L10.3771 10.7394C12.0923 11.7535 12.7779 11.7535 14.4931 10.7394L17.4351 9" stroke="#7D7D7D" stroke-width="1.5" stroke-linecap="round" stroke-linejoin="round"/>
<path d="M2.45083 13.9756C2.5162 17.0412 2.54889 18.5739 3.68002 19.7094C4.81114 20.8448 6.38539 20.8843 9.53389 20.9634C11.4744 21.0122 13.3958 21.0122 15.3363 20.9634C18.4848 20.8843 20.059 20.8448 21.1902 19.7094C22.3213 18.5739 22.354 17.0412 22.4193 13.9756C22.4404 12.9899 22.4404 12.0101 22.4193 11.0244C22.354 7.95886 22.3213 6.42609 21.1902 5.29066C20.059 4.15523 18.4848 4.11568 15.3363 4.03657C13.3958 3.98781 11.4744 3.98781 9.53388 4.03656C6.38539 4.11566 4.81114 4.15521 3.68001 5.29065C2.54888 6.42608 2.5162 7.95885 2.45082 11.0244C2.4298 12.0101 2.42981 12.9899 2.45083 13.9756Z" stroke="#7D7D7D" stroke-width="1.5" stroke-linejoin="round"/>
</svg>
