<svg width="22" height="17" viewBox="0 0 22 17" fill="none" xmlns="http://www.w3.org/2000/svg">
<path d="M21.2832 4.11742C21.2832 2.28613 19.9362 0.812966 18.2718 0.812966C16.0172 0.707565 13.718 0.66687 11.3682 0.66687H10.6357C8.29167 0.66687 5.98832 0.707565 3.7338 0.813373C2.07343 0.813373 0.726421 2.29468 0.726421 4.12597C0.624683 5.57431 0.581546 7.02306 0.583988 8.47181C0.579918 9.92056 0.626039 11.3707 0.722352 12.8221C0.722352 14.6534 2.06936 16.1388 3.72973 16.1388C6.09819 16.2487 8.5277 16.2975 10.9979 16.2934C13.4722 16.3016 15.8949 16.25 18.2661 16.1388C19.9305 16.1388 21.2775 14.6534 21.2775 12.8221C21.3752 11.3693 21.4199 9.92056 21.4159 8.46774C21.4251 7.01899 21.3809 5.56888 21.2832 4.11742ZM9.0079 12.464V4.4674L14.9087 8.46367L9.0079 12.464Z" fill="black"/>
</svg>
